<svg width="109" height="109" viewBox="0 0 109 109" fill="none" xmlns="http://www.w3.org/2000/svg">
<g filter="url(#filter0_f_183_135)">
<circle cx="54.5" cy="54.5" r="25" stroke="white" stroke-width="5"/>
<path d="M58.816 47.48H56.832C56.384 47.48 56.256 47.608 56.256 48.056V65.816C56.256 66.744 56 67 55.072 67H53.024C52.096 67 51.84 66.744 51.84 65.816V48.056C51.84 47.608 51.712 47.48 51.264 47.48H49.28C48.352 47.48 48.096 47.224 48.096 46.296V44.184C48.096 43.256 48.352 43 49.28 43H58.816C59.744 43 60 43.256 60 44.184V46.296C60 47.224 59.744 47.48 58.816 47.48Z" fill="white"/>
</g>
<circle cx="54.5" cy="54.5" r="25" stroke="white" stroke-width="5"/>
<path d="M58.816 47.48H56.832C56.384 47.48 56.256 47.608 56.256 48.056V65.816C56.256 66.744 56 67 55.072 67H53.024C52.096 67 51.84 66.744 51.84 65.816V48.056C51.84 47.608 51.712 47.48 51.264 47.48H49.28C48.352 47.48 48.096 47.224 48.096 46.296V44.184C48.096 43.256 48.352 43 49.28 43H58.816C59.744 43 60 43.256 60 44.184V46.296C60 47.224 59.744 47.48 58.816 47.48Z" fill="white"/>
<defs>
<filter id="filter0_f_183_135" x="0" y="0" width="109" height="109" filterUnits="userSpaceOnUse" color-interpolation-filters="sRGB">
<feFlood flood-opacity="0" result="BackgroundImageFix"/>
<feBlend mode="normal" in="SourceGraphic" in2="BackgroundImageFix" result="shape"/>
<feGaussianBlur stdDeviation="13.5" result="effect1_foregroundBlur_183_135"/>
</filter>
</defs>
</svg>
