<svg width="30" height="29" viewBox="0 0 30 29" fill="none" xmlns="http://www.w3.org/2000/svg">
<path d="M14.0729 1.29236C14.41 0.45891 15.59 0.458908 15.9271 1.29235L19.1825 9.34218C19.3258 9.6964 19.6583 9.93803 20.0395 9.96481L28.7013 10.5734C29.5981 10.6364 29.9628 11.7587 29.2743 12.3368L22.6244 17.9204C22.3318 18.1661 22.2048 18.5571 22.2971 18.9279L24.3949 27.3538C24.6121 28.2262 23.6575 28.9198 22.8949 28.4436L15.5296 23.8447C15.2055 23.6423 14.7945 23.6423 14.4704 23.8447L7.10507 28.4436C6.3425 28.9198 5.38785 28.2262 5.60506 27.3538L7.70291 18.9279C7.79522 18.5571 7.66819 18.1661 7.37557 17.9204L0.725722 12.3368C0.0372239 11.7587 0.401864 10.6364 1.29868 10.5734L9.96051 9.96481C10.3417 9.93803 10.6742 9.6964 10.8175 9.34218L14.0729 1.29236Z" fill="white"/>
</svg>
